<svg width="32" height="32" viewBox="0 0 32 32" fill="none" xmlns="http://www.w3.org/2000/svg">
<g id="Group">
<path id="Path" d="M13.782 4.20816C11.0601 4.71847 8.59892 6.15559 6.81673 8.27527" stroke="#4D3491" stroke-width="1.5" stroke-linecap="round" stroke-linejoin="round"/>
<path id="Path_2" d="M4.65286 12.1074C3.7539 14.6896 3.77691 17.5033 4.71797 20.0704" stroke="#4D3491" stroke-width="1.5" stroke-linecap="round" stroke-linejoin="round"/>
<path id="Path_3" d="M6.94516 23.8661C8.7158 25.9087 11.1254 27.2923 13.782 27.7918" stroke="#4D3491" stroke-width="1.5" stroke-linecap="round" stroke-linejoin="round"/>
<path id="Path_4" d="M18.1827 4.20284C23.8738 5.25121 28.0052 10.2131 28.0052 16C28.0052 21.7869 23.8738 26.7488 18.1827 27.7972" stroke="#4D3491" stroke-width="1.5" stroke-linecap="round" stroke-linejoin="round"/>
<path id="Path_5" fill-rule="evenodd" clip-rule="evenodd" d="M14.5874 12.0757L19.7656 15.1383C20.07 15.3183 20.2568 15.6457 20.2568 15.9993C20.2568 16.353 20.07 16.6804 19.7656 16.8604L14.5874 19.923C14.278 20.1059 13.8943 20.1088 13.5821 19.9307C13.27 19.7526 13.0773 19.4207 13.0774 19.0613V12.9374C13.0773 12.578 13.27 12.2461 13.5821 12.068C13.8943 11.8898 14.278 11.8928 14.5874 12.0757V12.0757Z" stroke="#4D3491" stroke-width="1.5" stroke-linecap="round" stroke-linejoin="round"/>
</g>
</svg>
