<svg width="148" height="22" viewBox="0 0 148 22" fill="none" xmlns="http://www.w3.org/2000/svg">
<g id="Logo">
<g id="Nextmove">
<path d="M27.866 19.8333V1.06398H31.2981L40.1197 14.283V1.06398H43.5518V19.8333H40.1197L31.2981 6.64116V19.8333H27.866Z" fill="black"/>
<path d="M52.2314 20.1551C50.8907 20.1551 49.702 19.8691 48.6652 19.2971C47.6284 18.725 46.8151 17.9206 46.2252 16.8839C45.6353 15.8471 45.3403 14.6494 45.3403 13.2909C45.3403 11.9144 45.6263 10.69 46.1984 9.61744C46.7883 8.5449 47.5927 7.71369 48.6116 7.12379C49.6483 6.51603 50.8639 6.21214 52.2582 6.21214C53.5631 6.21214 54.7161 6.49815 55.7171 7.07017C56.7181 7.64219 57.4957 8.42871 58.0499 9.42974C58.6219 10.4129 58.9079 11.5122 58.9079 12.7278C58.9079 12.9244 58.8989 13.13 58.8811 13.3445C58.8811 13.559 58.8721 13.7824 58.8543 14.0148H48.7456C48.8171 15.0516 49.1746 15.8649 49.8182 16.4548C50.4796 17.0447 51.275 17.3397 52.2045 17.3397C52.9017 17.3397 53.4827 17.1877 53.9474 16.8839C54.4301 16.5621 54.7876 16.151 55.0199 15.6504H58.5057C58.2554 16.4906 57.8353 17.2592 57.2455 17.9564C56.6734 18.6357 55.9584 19.1719 55.1004 19.5652C54.2602 19.9584 53.3039 20.1551 52.2314 20.1551ZM52.2582 9.00073C51.418 9.00073 50.6762 9.24205 50.0327 9.72469C49.3891 10.1895 48.978 10.9045 48.7993 11.8698H55.4221C55.3685 10.9939 55.0468 10.2967 54.4569 9.77832C53.867 9.25993 53.1341 9.00073 52.2582 9.00073Z" fill="black"/>
<path d="M58.2771 19.8333L63.1035 13.1836L58.2771 6.5339H61.9506L65.329 11.253L68.6807 6.5339H72.381L67.5277 13.1836L72.381 19.8333H68.6807L65.329 15.1142L61.9506 19.8333H58.2771Z" fill="black"/>
<path d="M79.1526 19.8333C77.7583 19.8333 76.6411 19.4937 75.8009 18.8144C74.9608 18.1351 74.5407 16.9285 74.5407 15.1946V9.40293H72.2616V6.5339H74.5407L74.9429 2.96773H77.9728V6.5339H81.5658V9.40293H77.9728V15.2214C77.9728 15.8649 78.1069 16.3118 78.375 16.5621C78.661 16.7945 79.1436 16.9107 79.8229 16.9107H81.4853V19.8333H79.1526Z" fill="black"/>
<path d="M83.1719 19.8333V6.5339H86.2018L86.4967 8.3304C86.9257 7.68687 87.4888 7.17742 88.186 6.80204C88.901 6.40877 89.7233 6.21214 90.6528 6.21214C92.7085 6.21214 94.1653 7.0076 95.0234 8.59853C95.506 7.86563 96.1495 7.28468 96.9539 6.85566C97.7762 6.42665 98.67 6.21214 99.6353 6.21214C101.369 6.21214 102.701 6.73053 103.63 7.76732C104.56 8.8041 105.025 10.3235 105.025 12.3256V19.8333H101.593V12.6473C101.593 11.5033 101.369 10.6274 100.922 10.0196C100.493 9.41187 99.8229 9.10798 98.9113 9.10798C97.9818 9.10798 97.231 9.44762 96.659 10.1269C96.1048 10.8062 95.8278 11.7536 95.8278 12.9691V19.8333H92.3956V12.6473C92.3956 11.5033 92.1722 10.6274 91.7253 10.0196C91.2784 9.41187 90.5902 9.10798 89.6607 9.10798C88.749 9.10798 88.0072 9.44762 87.4352 10.1269C86.881 10.8062 86.604 11.7536 86.604 12.9691V19.8333H83.1719Z" fill="black"/>
<path d="M113.324 20.1551C112.037 20.1551 110.875 19.8601 109.838 19.2702C108.819 18.6803 108.006 17.867 107.398 16.8302C106.808 15.7756 106.513 14.56 106.513 13.1836C106.513 11.8072 106.817 10.6006 107.425 9.56381C108.033 8.50915 108.846 7.68688 109.865 7.09698C110.902 6.50709 112.064 6.21214 113.351 6.21214C114.62 6.21214 115.764 6.50709 116.783 7.09698C117.82 7.68688 118.633 8.50915 119.223 9.56381C119.831 10.6006 120.135 11.8072 120.135 13.1836C120.135 14.56 119.831 15.7756 119.223 16.8302C118.633 17.867 117.82 18.6803 116.783 19.2702C115.746 19.8601 114.593 20.1551 113.324 20.1551ZM113.324 17.1788C114.218 17.1788 114.995 16.8481 115.657 16.1867C116.318 15.5074 116.649 14.5064 116.649 13.1836C116.649 11.8608 116.318 10.8687 115.657 10.2073C114.995 9.52806 114.227 9.18842 113.351 9.18842C112.439 9.18842 111.653 9.52806 110.991 10.2073C110.348 10.8687 110.026 11.8608 110.026 13.1836C110.026 14.5064 110.348 15.5074 110.991 16.1867C111.653 16.8481 112.43 17.1788 113.324 17.1788Z" fill="black"/>
<path d="M124.801 19.8333L119.921 6.5339H123.514L126.892 16.5889L130.271 6.5339H133.864L128.957 19.8333H124.801Z" fill="black"/>
<path d="M140.495 20.1551C139.155 20.1551 137.966 19.8691 136.929 19.2971C135.892 18.725 135.079 17.9206 134.489 16.8839C133.899 15.8471 133.604 14.6494 133.604 13.2909C133.604 11.9144 133.89 10.69 134.462 9.61744C135.052 8.5449 135.857 7.71369 136.876 7.12379C137.912 6.51603 139.128 6.21214 140.522 6.21214C141.827 6.21214 142.98 6.49815 143.981 7.07017C144.982 7.64219 145.76 8.42871 146.314 9.42974C146.886 10.4129 147.172 11.5122 147.172 12.7278C147.172 12.9244 147.163 13.13 147.145 13.3445C147.145 13.559 147.136 13.7824 147.118 14.0148H137.01C137.081 15.0516 137.439 15.8649 138.082 16.4548C138.744 17.0447 139.539 17.3397 140.469 17.3397C141.166 17.3397 141.747 17.1877 142.211 16.8839C142.694 16.5621 143.052 16.151 143.284 15.6504H146.77C146.519 16.4906 146.099 17.2592 145.51 17.9564C144.938 18.6357 144.222 19.1719 143.364 19.5652C142.524 19.9584 141.568 20.1551 140.495 20.1551ZM140.522 9.00073C139.682 9.00073 138.94 9.24205 138.297 9.72469C137.653 10.1895 137.242 10.9045 137.063 11.8698H143.686C143.633 10.9939 143.311 10.2967 142.721 9.77832C142.131 9.25993 141.398 9.00073 140.522 9.00073Z" fill="black"/>
</g>
<g id="Icon">
<path d="M10.9423 0.699098V9.18402C10.9423 10.1525 10.1572 10.9375 9.18877 10.9375L0.703841 10.9375L0.703842 7.4305H4.95067L0.488617 2.96845L2.96847 0.488602L7.43525 4.95538L7.43525 0.699098L10.9423 0.699098Z" fill="black"/>
<path d="M21.3006 11.0578H12.8157C11.8472 11.0578 11.0622 11.8429 11.0622 12.8113V21.2962L14.5692 21.2962L14.5692 17.049L19.0316 21.5114L21.5114 19.0315L17.0447 14.5648H21.3006V11.0578Z" fill="black"/>
</g>
</g>
</svg>
